HIERARCHY
ROOT SpineBase
{
  OFFSET 0.000000 0.000000 0.000000
  CHANNELS 6 Xposition Yposition Zposition Zrotation Xrotation Yrotation
  JOINT SpineMid
  {
    OFFSET 0.000000 35.802888 0.000000
    CHANNELS 3 Zrotation Xrotation Yrotation
    JOINT SpineShoulder
    {
      OFFSET -0.367558 26.594474 -1.157274
      CHANNELS 3 Zrotation Xrotation Yrotation
      JOINT Neck
      {
        OFFSET -0.140080 8.772133 -0.700587
        CHANNELS 3 Zrotation Xrotation Yrotation
        JOINT Head
        {
          OFFSET -3.345878 11.332618 7.036737
          CHANNELS 3 Zrotation Xrotation Yrotation
          End Site
          {
            OFFSET 0 0 0
          }
        }
      }
      JOINT ShoulderLeft
      {
        OFFSET -11.157881 -4.238253 16.872484
        CHANNELS 3 Zrotation Xrotation Yrotation
        JOINT ElbowLeft
        {
          OFFSET 1.489756 -21.579050 -1.645324
          CHANNELS 3 Zrotation Xrotation Yrotation
          JOINT WristLeft
          {
            OFFSET -11.676700 -25.505416 7.087163
            CHANNELS 3 Zrotation Xrotation Yrotation
            JOINT HandLeft
            {
              OFFSET -6.168185 3.200025 2.642304
              CHANNELS 3 Zrotation Xrotation Yrotation
              JOINT HandTipLeft
              {
                OFFSET -1.119817 -1.946972 -1.539422
                CHANNELS 3 Zrotation Xrotation Yrotation
                End Site
                {
                  OFFSET 0 0 0
                }
              }
              JOINT ThumbLeft
              {
                OFFSET -0.535126 1.473070 -3.520534
                CHANNELS 3 Zrotation Xrotation Yrotation
                End Site
                {
                  OFFSET 0 0 0
                }
              }
            }
          }
        }
      }
      JOINT ShoulderRight
      {
        OFFSET -1.870427 -6.094440 -13.205636
        CHANNELS 3 Zrotation Xrotation Yrotation
        JOINT ElbowRight
        {
          OFFSET -11.019655 -24.508291 -5.950210
          CHANNELS 3 Zrotation Xrotation Yrotation
          JOINT WristRight
          {
            OFFSET -10.487851 -23.310360 2.093368
            CHANNELS 3 Zrotation Xrotation Yrotation
            JOINT HandRight
            {
              OFFSET -2.084938 -8.965807 2.737202
              CHANNELS 3 Zrotation Xrotation Yrotation
              JOINT HandTipRight
              {
                OFFSET -4.672907 -6.623456 2.564382
                CHANNELS 3 Zrotation Xrotation Yrotation
                End Site
                {
                  OFFSET 0 0 0
                }
              }
              JOINT ThumbRight
              {
                OFFSET 4.811169 -2.300629 -4.015832
                CHANNELS 3 Zrotation Xrotation Yrotation
                End Site
                {
                  OFFSET 0 0 0
                }
              }
            }
          }
        }
      }
    }
  }
  JOINT HipLeft
  {
    OFFSET -2.620885 0.973416 -0.528519
    CHANNELS 3 Zrotation Xrotation Yrotation
    JOINT KneeLeft
    {
      OFFSET -8.160216 -40.490568 -4.402062
      CHANNELS 3 Zrotation Xrotation Yrotation
      JOINT AnkleLeft
      {
        OFFSET -10.314400 -34.449122 -9.571091
        CHANNELS 3 Zrotation Xrotation Yrotation
        JOINT FootLeft
        {
          OFFSET -5.763818 -5.493619 -1.919748
          CHANNELS 3 Zrotation Xrotation Yrotation
          End Site
          {
            OFFSET 0 0 0
          }
        }
      }
    }
  }
  JOINT HipRight
  {
    OFFSET 1.334648 1.551842 -7.474946
    CHANNELS 3 Zrotation Xrotation Yrotation
    JOINT KneeRight
    {
      OFFSET -20.343966 -36.389153 -3.801889
      CHANNELS 3 Zrotation Xrotation Yrotation
      JOINT AnkleRight
      {
        OFFSET 14.102312 -34.586637 10.128472
        CHANNELS 3 Zrotation Xrotation Yrotation
        JOINT FootRight
        {
          OFFSET -11.808384 -4.734902 -9.364022
          CHANNELS 3 Zrotation Xrotation Yrotation
          End Site
          {
            OFFSET 0 0 0
          }
        }
      }
    }
  }
}
MOTION
Frames: 9
Frame Time: 0.033333
48.644064 82.358929 305.072701 0.333950 -0.565033 58.693248 0.309238 0.578926 -58.693163 -0.000000 0.000000 0.000000 -5.739355 -0.542093 3.439475 0.000000 0.000000 0.000000 -0.000000 0.000000 0.000000 -0.000000 0.000000 0.000000 83.988843 30.972044 -17.594296 -84.495174 -20.608712 -29.168768 0.000000 0.000000 0.000000 0.000000 0.000000 0.000000 -11.040323 7.529958 0.025424 -41.238782 3.683169 -8.883738 -25.036597 -2.280803 -20.757001 2.154756 7.094002 -0.763778 0.000000 0.000000 0.000000 0.000000 0.000000 0.000000 0.309238 0.578926 -58.693163 -0.000000 0.000000 0.000000 10.672602 -7.809415 5.912242 0.000000 0.000000 0.000000 0.802746 1.179052 -59.083250 0.261288 -0.731692 0.384184 0.089989 0.911448 -2.418128 0.000000 0.000000 0.000000
48.094093 82.945687 305.045385 -0.354990 -0.400200 56.364030 0.529827 -0.073883 -56.364928 -0.000000 0.000000 0.000000 -5.163204 0.467464 3.402932 0.000000 0.000000 0.000000 -0.000000 0.000000 0.000000 -0.000000 0.000000 0.000000 89.019957 31.517409 -19.774318 -89.109300 -20.284427 -31.212334 0.000000 0.000000 0.000000 0.000000 0.000000 0.000000 -18.241045 10.282101 1.358199 -45.955260 6.957317 -11.722772 -35.526212 -1.013408 -29.911501 8.478949 16.546956 5.555526 0.000000 0.000000 0.000000 0.000000 0.000000 0.000000 0.529827 -0.073883 -56.364928 1.535706 -1.196739 -0.052691 7.249836 -6.689226 6.384058 0.000000 0.000000 0.000000 1.436559 -0.027304 -56.849787 -0.456859 -0.784617 0.482531 0.315372 0.694550 -2.345428 0.000000 0.000000 0.000000
47.475342 83.957670 304.986966 -1.162604 -0.110287 54.389248 0.766667 -0.880952 -54.384472 -0.000000 0.000000 0.000000 -4.783432 1.059812 3.350196 0.000000 0.000000 0.000000 -0.000000 0.000000 0.000000 -0.000000 0.000000 0.000000 89.939218 31.598939 -20.177146 -89.944834 -20.208985 -31.579897 0.000000 0.000000 0.000000 0.000000 0.000000 0.000000 -26.451996 12.288772 3.437085 -47.821854 9.952056 -13.918796 -38.630607 0.959132 -35.145451 6.241554 21.605088 10.792022 0.000000 0.000000 0.000000 0.000000 0.000000 0.000000 1.672286 -1.188089 -54.565052 1.256909 -2.177970 0.165009 22.849115 -13.679133 13.942653 0.000000 0.000000 0.000000 2.154648 -1.701042 -54.874227 -1.469008 -0.663433 0.512523 0.859875 0.124025 -2.044480 0.000000 0.000000 0.000000
46.888063 84.745033 304.855417 -1.960109 0.395590 50.250470 0.574278 -0.705548 -50.277581 1.050699 -0.385152 0.043920 -4.822053 1.425086 3.492058 0.000000 0.000000 0.000000 -0.000000 0.000000 0.000000 -0.000000 0.000000 0.000000 86.044096 31.216343 -18.478898 -86.388730 -20.494137 -30.011136 0.000000 0.000000 0.000000 0.000000 0.000000 0.000000 -34.522823 12.961720 5.851687 -45.951903 11.510125 -15.359852 -41.428812 1.258216 -40.078082 3.442319 24.217906 16.216700 0.000000 0.000000 0.000000 0.000000 0.000000 0.000000 2.158716 -2.592495 -50.417025 0.713736 -2.054025 0.182838 15.878450 -9.335742 8.213177 0.000000 0.000000 0.000000 2.915605 -3.164685 -50.735934 -2.330363 -0.633250 0.578412 1.178838 -0.289387 -1.657431 0.000000 0.000000 0.000000
46.357984 85.254747 304.670063 -2.676588 1.027884 44.268374 0.718706 -0.861260 -44.286972 0.525734 0.053944 -0.007272 -4.118930 0.563493 3.730084 0.000000 0.000000 0.000000 5.851292 -5.022155 -0.319503 -1.490154 6.715537 0.215760 84.545357 31.156980 -17.065926 -86.242399 -27.435347 -31.923919 0.000000 0.000000 0.000000 0.000000 0.000000 0.000000 -39.921978 12.256313 7.293283 -44.732276 12.139238 -16.545486 -40.375049 2.737850 -40.156000 -0.805859 29.288294 22.324688 0.000000 0.000000 0.000000 0.000000 0.000000 0.000000 2.629479 -3.964088 -44.354012 -0.460054 -1.290549 0.197444 11.393125 -5.714148 3.917170 0.000000 0.000000 0.000000 3.806156 -4.223097 -44.747562 -2.986302 -0.684903 0.667811 1.252780 -0.538056 -1.172745 0.000000 0.000000 0.000000
45.920101 85.475930 304.428182 -3.246537 1.732161 37.523880 0.830168 -0.761387 -37.525002 0.472929 0.150358 -0.024679 -4.055137 -0.325123 4.028032 0.000000 0.000000 0.000000 5.559990 -4.580181 -0.144848 -2.203999 5.294405 -0.206827 86.582036 28.705048 -18.420883 -86.777849 -17.170240 -30.209061 0.000000 0.000000 0.000000 0.000000 0.000000 0.000000 -44.787526 9.693123 8.443440 -42.789010 8.957793 -17.946977 -40.499646 0.037464 -42.154517 -10.259422 34.250034 32.909960 0.000000 0.000000 0.000000 0.000000 0.000000 0.000000 3.165096 -5.236622 -37.472201 -1.898043 -0.097455 0.200302 3.968216 0.711434 -1.850249 0.000000 0.000000 0.000000 4.742125 -4.877793 -37.984751 -3.285789 -0.001506 1.136323 0.785541 -1.424475 -0.714263 0.000000 0.000000 0.000000
45.643329 85.380555 304.089542 -3.577585 2.485073 31.108505 0.767311 -0.452421 -31.090738 0.383171 0.266383 -0.043851 -4.194043 -0.973753 4.581381 0.000000 0.000000 0.000000 -0.294321 -0.782955 0.449891 -0.304684 -2.909526 -0.781650 86.218201 28.249702 -19.407997 -83.763873 -7.173051 -27.440630 0.000000 0.000000 0.000000 0.000000 0.000000 0.000000 -48.959362 5.943405 9.009952 -40.243321 5.411042 -19.115230 -39.755177 -6.419286 -46.590197 -10.959987 31.968583 34.488388 0.000000 0.000000 0.000000 0.000000 0.000000 0.000000 3.569875 -6.437298 -30.868572 -4.063703 1.915390 0.261934 -2.680431 7.093093 -6.343950 0.000000 0.000000 0.000000 5.405631 -5.184216 -31.536504 -3.293993 0.122309 1.357276 0.330030 -1.590670 -0.527685 0.000000 0.000000 0.000000
45.692283 84.999521 303.987597 -3.453443 2.887687 28.210733 0.585612 0.172585 -28.186184 0.268328 0.282609 -0.062280 -4.789303 -2.034739 5.081234 0.000000 0.000000 0.000000 -13.466580 14.999429 4.430502 3.617502 -27.826337 -3.597341 88.413144 31.203104 -22.279900 -97.882211 10.427152 -13.312398 0.000000 0.000000 0.000000 0.000000 0.000000 0.000000 -51.772470 0.332924 8.918925 -37.759646 -0.040226 -20.089903 -35.026352 -18.881900 -51.826378 -21.560127 32.954333 42.738059 0.000000 0.000000 0.000000 0.000000 0.000000 0.000000 3.109178 -6.429880 -27.914685 -4.683368 2.841052 0.298928 -11.659094 9.278899 -4.831040 0.000000 0.000000 0.000000 5.962060 -5.419481 -28.678751 -3.858532 0.148700 1.538116 -0.506092 -1.101938 -0.601774 0.000000 0.000000 0.000000
46.155734 84.255272 303.886887 -2.872127 3.271008 24.039925 0.075054 1.022812 -24.025864 0.076754 0.359376 -0.083690 -5.485697 -2.874892 5.685336 0.000000 0.000000 0.000000 -30.883936 23.767814 11.043217 0.867062 -51.758139 -13.187959 85.523133 37.495513 -23.131527 -143.823487 -29.743852 24.472712 0.000000 0.000000 0.000000 0.000000 0.000000 0.000000 -53.656767 -5.772523 8.176303 -34.186286 -6.887072 -21.244189 -22.657983 -28.725110 -48.581828 -30.608628 30.156950 44.222636 0.000000 0.000000 0.000000 0.000000 0.000000 0.000000 2.130863 -6.099990 -23.713484 -4.460359 3.241403 0.285272 -13.116907 19.298935 -11.830674 0.000000 0.000000 0.000000 5.188974 -4.333457 -24.804900 -3.298568 -0.473515 1.640780 -0.790607 -0.425398 -0.976368 0.000000 0.000000 0.000000
